<?xml version="1.0" encoding="utf-8"?>
<!-- Generator: Adobe Illustrator 16.0.4, SVG Export Plug-In . SVG Version: 6.00 Build 0)  -->
<!DOCTYPE svg PUBLIC "-//W3C//DTD SVG 1.1//EN" "http://www.w3.org/Graphics/SVG/1.1/DTD/svg11.dtd">
<svg version="1.1" id="logo" xmlns="http://www.w3.org/2000/svg" xmlns:xlink="http://www.w3.org/1999/xlink" x="0px" y="0px"
	 width="600px" height="100px" viewBox="0 0 600 100" enable-background="new 0 0 600 100" xml:space="preserve">
<polygon fill="#F15E4B" points="161.989,90.205 84.197,90.205 84.197,16.487 147.684,16.487 168.404,68.82 "/>
<g>
	<path fill="#F15E4B" d="M347.705,90.428h-13.052c-2.733,0-3.728-0.748-4.719-3.733l-3.481-9.818h-30.459l-3.48,9.818
		c-0.994,2.985-1.991,3.733-4.723,3.733h-13.052c-2.736,0-2.736-1.988-2.116-3.484l27.599-74.46
		c0.993-2.614,2.364-3.855,5.097-3.855h11.935c2.733,0,3.979,1.241,5.096,3.855l27.473,74.46
		C350.446,88.439,350.446,90.428,347.705,90.428z M320.607,59.474l-9.321-27.476l-9.325,27.476H320.607z"/>
	<path fill="#F15E4B" d="M402.759,12.235V22.55c0,2.241-0.752,3.603-3.609,3.603h-19.023v60.668c0,2.858-1.367,3.606-3.601,3.606
		h-12.309c-2.237,0-3.604-0.748-3.604-3.606V26.153h-19.143c-2.863,0-3.61-1.362-3.61-3.603V12.235c0-2.241,0.747-3.607,3.61-3.607
		h57.679C402.007,8.628,402.759,9.995,402.759,12.235z"/>
	<path fill="#F15E4B" d="M449.614,76.998v9.823c0,2.234-0.744,3.606-3.604,3.606h-35.18c-2.862,0-3.606-1.372-3.606-3.606v-9.823
		c0-2.236,0.744-3.604,3.606-3.604h7.832V25.907h-7.585c-2.857,0-3.604-1.367-3.604-3.608V12.235c0-2.241,0.747-3.607,3.604-3.607
		h34.561c2.856,0,3.605,1.367,3.605,3.607v10.063c0,2.241-0.749,3.608-3.605,3.608h-7.461v47.488h7.833
		C448.87,73.395,449.614,74.762,449.614,76.998z"/>
	<path fill="#F15E4B" d="M521.414,64.197c0,19.64-18.644,28.092-33.438,28.092c-14.792,0-33.193-8.452-33.193-28.092V34.858
		c0-19.644,18.401-28.096,33.193-28.096c14.794,0,33.438,8.452,33.438,28.096V64.197z M501.897,36.597
		c0-7.955-5.718-12.555-13.921-12.555c-8.082,0-13.8,4.6-13.8,12.555v25.856c0,7.958,5.718,12.557,13.8,12.557
		c8.203,0,13.921-4.599,13.921-12.557V36.597z"/>
	<path fill="#F15E4B" d="M595.075,12.235v74.586c0,2.234-0.743,3.606-3.604,3.606h-11.312c-3.104,0-3.976-1.742-5.596-4.228
		l-26.35-42.642v43.263c0,2.858-1.369,3.606-3.605,3.606h-12.307c-2.24,0-3.603-0.748-3.603-3.606V12.235
		c0-2.241,0.741-3.607,3.603-3.607h11.683c3.108,0,3.981,1.739,5.594,4.225l26.355,42.516V12.235c0-2.865,1.371-3.607,3.604-3.607
		h11.934C593.71,8.628,595.075,9.37,595.075,12.235z"/>
	<path fill="#F15E4B" d="M264.203,8.628h-11.936c-2.236,0-3.603,0.742-3.603,3.607v43.134l-26.459-42.71
		c-1.62-2.483-2.486-4.225-5.595-4.225h-6.917c0.677,1.291,0.744,2.916,0.159,4.459l-8.157,22.833v50.899
		c0,2.865,1.367,3.608,3.603,3.608h11.936c2.236,0,3.602-0.743,3.602-3.608V43.491l26.46,42.709c1.62,2.485,2.486,4.228,5.595,4.228
		h11.313c2.857,0,3.603-1.372,3.603-3.606V12.235C267.806,9.37,266.439,8.628,264.203,8.628z"/>
</g>
<g>
	<path fill="#191930" d="M145.438,70.21c-0.003,0-0.005,0-0.008,0.003C145.438,70.258,145.445,70.297,145.438,70.21z"/>
	<path fill="#191930" d="M205.31,8.434h-13.177c-3.357,0-4.226,0.992-5.223,3.977l-16.781,51.464l-16.905-51.464
		c-0.995-2.985-1.864-3.977-5.096-3.977H72.671c-2.861,0-3.603,1.369-3.603,3.605v17.132C65.083,14.863,49.392,8.434,36.586,8.434
		H8.742c-2.86,0-3.604,1.369-3.604,3.605v74.58c0,2.242,0.744,3.608,3.604,3.608h27.845c12.806,0,28.496-6.337,32.481-20.698v17.09
		c0,2.242,0.742,3.608,3.603,3.608l74.28-0.008c2.767,0,3.989-1.507,3.488-3.49l-5.029-16.511
		c-24.408,8.254-29.85-8.978-56.011-0.354l1.231-14.788c23.2-9.933,29.78,7.307,49.482,1.045c0.567-0.248,0.644-1.075,0.39-1.803
		l-3.393-11.265c-18.668,4.472-22.873-10.356-45.101-2.332l1.324-14.342c17.281-8.159,27.482,7.333,43.836,0
		c0,0,0.443,1.495,0.462,1.49l17.991,58.742c1.057,3.149,2.284,3.608,4.93,3.608l15.297,0.008c2.733,0,3.604-0.497,5.094-3.729
		l26.6-74.459C208.167,10.423,207.674,8.434,205.31,8.434z M50.51,60.521c0,7.953-5.72,12.429-13.924,12.429H24.653V25.713h11.934
		c8.204,0,13.924,4.599,13.924,12.43V60.521z"/>
</g>
</svg>
